<?xml version="1.0" encoding="UTF-8" standalone="no"?>
<!DOCTYPE svg PUBLIC "-//W3C//DTD SVG 1.1//EN" "http://www.w3.org/Graphics/SVG/1.1/DTD/svg11.dtd">
<svg width="100%" height="100%" viewBox="0 0 150 225" version="1.1" xmlns="http://www.w3.org/2000/svg" xmlns:xlink="http://www.w3.org/1999/xlink" xml:space="preserve" xmlns:serif="http://www.serif.com/" style="fill-rule:evenodd;clip-rule:evenodd;stroke-linejoin:round;stroke-miterlimit:1.41421;">
    <g transform="matrix(1,0,0,1,-11,-781)">
        <g>
            <g>
                <rect x="0.25" y="1.04" width="1530.71" height="1530.71" style="fill:white;fill-rule:nonzero;"/>
                <path d="M18.502,1017.51C10.644,1017.51 4.251,1011.12 4.251,1003.26L4.251,784.646C4.251,776.789 10.644,770.396 18.502,770.396L152.077,770.396C159.934,770.396 166.327,776.789 166.327,784.646L166.327,1003.26C166.327,1011.12 159.934,1017.51 152.077,1017.51L18.502,1017.51Z" style="fill:white;fill-rule:nonzero;"/>
                <path d="M152.077,770.146L18.502,770.146C10.506,770.146 4.001,776.651 4.001,784.646L4.001,1003.26C4.001,1011.26 10.506,1017.76 18.502,1017.76L152.077,1017.76C160.072,1017.76 166.577,1011.26 166.577,1003.26L166.577,784.646C166.577,776.651 160.072,770.146 152.077,770.146ZM152.077,770.646C159.809,770.646 166.077,776.914 166.077,784.646L166.077,1003.26C166.077,1010.99 159.809,1017.26 152.077,1017.26L18.502,1017.26C10.77,1017.26 4.501,1010.99 4.501,1003.26L4.501,784.646C4.501,776.914 10.77,770.646 18.502,770.646L152.077,770.646Z" style="fill-rule:nonzero;"/>
            </g>
            <g>
                <path d="M48.425,827.339C47.782,825.982 46.966,824.958 45.577,823.445C43.934,821.655 38.043,816.493 35.877,813.98C34.302,812.155 31.727,808.86 31.465,802.952C31.364,800.667 31.145,795.081 36.494,791.594C38.783,790.101 42.714,789.936 45.265,792.252C48.047,794.778 48.431,797.694 48.431,797.694C48.431,797.694 49.526,793.733 51.809,792.17C53.259,791.175 55.221,789.953 58.562,790.822C63.276,792.049 65.405,796.519 65.445,801.552C65.486,806.784 64.737,810.255 60.1,815.009C56.845,818.347 53.442,821.091 50.507,824.495C49.393,825.786 49.029,826.075 48.425,827.339Z" style="fill:rgb(200,0,0);fill-rule:nonzero;"/>
                <path d="M122.125,827.339C121.483,825.982 120.667,824.958 119.278,823.445C117.634,821.655 111.744,816.493 109.577,813.98C108.003,812.155 105.428,808.86 105.166,802.952C105.065,800.667 104.845,795.081 110.194,791.594C112.484,790.101 116.415,789.936 118.966,792.252C121.748,794.778 122.132,797.694 122.132,797.694C122.132,797.694 123.227,793.733 125.509,792.17C126.96,791.175 128.922,789.953 132.262,790.822C136.977,792.049 139.106,796.519 139.146,801.552C139.187,806.784 138.438,810.255 133.801,815.009C130.545,818.347 127.143,821.091 124.208,824.495C123.094,825.786 122.729,826.075 122.125,827.339Z" style="fill:rgb(200,0,0);fill-rule:nonzero;"/>
                <path d="M85.275,912.379C84.632,911.022 83.816,909.998 82.427,908.485C80.784,906.695 74.894,901.533 72.727,899.02C71.152,897.195 68.577,893.9 68.315,887.992C68.214,885.707 67.995,880.121 73.344,876.634C75.633,875.141 79.564,874.977 82.115,877.292C84.897,879.818 85.281,882.734 85.281,882.734C85.281,882.734 86.376,878.773 88.659,877.21C90.109,876.215 92.071,874.993 95.412,875.862C100.126,877.089 102.256,881.559 102.296,886.592C102.337,891.824 101.587,895.295 96.95,900.049C93.695,903.387 90.292,906.131 87.357,909.535C86.243,910.826 85.879,911.115 85.275,912.379Z" style="fill:rgb(200,0,0);fill-rule:nonzero;"/>
                <path d="M48.453,960.569C49.096,961.926 49.912,962.95 51.301,964.463C52.944,966.253 58.835,971.415 61.002,973.928C62.576,975.753 65.151,979.048 65.413,984.957C65.514,987.241 65.733,992.828 60.384,996.314C58.095,997.808 54.164,997.972 51.613,995.656C48.831,993.13 48.447,990.214 48.447,990.214C48.447,990.214 47.352,994.175 45.069,995.738C43.619,996.733 41.657,997.955 38.316,997.086C33.602,995.859 31.473,991.39 31.433,986.356C31.392,981.124 32.141,977.653 36.778,972.899C40.033,969.561 43.436,966.817 46.371,963.413C47.485,962.123 47.849,961.833 48.453,960.569Z" style="fill:rgb(200,0,0);fill-rule:nonzero;"/>
                <path d="M122.154,960.569C122.796,961.926 123.613,962.95 125.001,964.463C126.645,966.253 132.535,971.415 134.702,973.928C136.276,975.753 138.852,979.048 139.113,984.957C139.214,987.241 139.434,992.828 134.085,996.314C131.795,997.808 127.865,997.972 125.313,995.656C122.532,993.13 122.147,990.214 122.147,990.214C122.147,990.214 121.053,994.175 118.77,995.738C117.319,996.733 115.357,997.955 112.017,997.086C107.303,995.859 105.173,991.39 105.133,986.356C105.092,981.124 105.842,977.653 110.479,972.899C113.734,969.561 117.137,966.817 120.072,963.413C121.186,962.123 121.55,961.833 122.154,960.569Z" style="fill:rgb(200,0,0);fill-rule:nonzero;"/>
                <path d="M20.086,825.096C19.818,824.53 19.478,824.104 18.899,823.473C18.214,822.727 15.76,820.576 14.857,819.529C14.201,818.769 13.128,817.395 13.019,814.933C12.977,813.982 12.885,811.653 15.114,810.201C16.068,809.578 17.706,809.51 18.769,810.475C19.928,811.528 20.089,812.742 20.089,812.742C20.089,812.742 20.545,811.092 21.496,810.441C22.1,810.026 22.918,809.517 24.31,809.879C26.274,810.39 27.162,812.253 27.178,814.35C27.195,816.53 26.883,817.977 24.951,819.958C23.595,821.349 22.177,822.492 20.954,823.911C20.489,824.448 20.338,824.569 20.086,825.096Z" style="fill:rgb(200,0,0);fill-rule:nonzero;"/>
                <path d="M20.098,962.811C20.365,963.377 20.706,963.803 21.284,964.434C21.969,965.18 24.424,967.331 25.327,968.378C25.983,969.139 27.056,970.512 27.165,972.974C27.207,973.926 27.298,976.254 25.069,977.707C24.115,978.329 22.477,978.397 21.414,977.432C20.255,976.38 20.095,975.165 20.095,975.165C20.095,975.165 19.639,976.815 18.688,977.466C18.083,977.881 17.266,978.39 15.874,978.028C13.909,977.517 13.022,975.654 13.005,973.557C12.988,971.377 13.301,969.93 15.233,967.95C16.589,966.558 18.007,965.415 19.23,963.997C19.694,963.459 19.846,963.338 20.098,962.811Z" style="fill:rgb(200,0,0);fill-rule:nonzero;"/>
                <path d="M150.492,962.811C150.76,963.377 151.1,963.803 151.679,964.434C152.364,965.18 154.818,967.331 155.721,968.378C156.377,969.139 157.45,970.512 157.559,972.974C157.601,973.926 157.693,976.254 155.464,977.707C154.51,978.329 152.872,978.397 151.809,977.432C150.65,976.38 150.49,975.165 150.49,975.165C150.49,975.165 150.033,976.815 149.082,977.466C148.478,977.881 147.66,978.39 146.268,978.028C144.304,977.517 143.416,975.654 143.4,973.557C143.383,971.377 143.695,969.93 145.627,967.95C146.984,966.558 148.402,965.415 149.625,963.997C150.089,963.459 150.241,963.338 150.492,962.811Z" style="fill:rgb(200,0,0);fill-rule:nonzero;"/>
                <path d="M150.48,825.096C150.213,824.53 149.872,824.104 149.294,823.473C148.609,822.727 146.155,820.576 145.252,819.529C144.596,818.769 143.522,817.395 143.413,814.933C143.371,813.982 143.28,811.653 145.509,810.201C146.463,809.578 148.101,809.51 149.164,810.475C150.323,811.528 150.483,812.742 150.483,812.742C150.483,812.742 150.939,811.092 151.89,810.441C152.495,810.026 153.312,809.517 154.704,809.879C156.669,810.39 157.556,812.253 157.573,814.35C157.59,816.53 157.278,817.977 155.346,819.958C153.989,821.349 152.571,822.492 151.348,823.911C150.884,824.448 150.732,824.569 150.48,825.096Z" style="fill:rgb(200,0,0);fill-rule:nonzero;"/>
                <path d="M20.01,804.478C18.396,804.478 16.909,803.919 15.921,802.94C15.073,802.1 14.625,801.011 14.625,799.79L17.125,799.79C17.125,800.336 17.312,800.799 17.681,801.165C18.211,801.69 19.094,802.001 20.051,801.978C21.489,801.965 23.035,800.708 23.062,797.218C23.074,795.702 22.725,794.542 22.053,793.865C21.428,793.235 20.625,793.103 20.062,793.103C18.044,793.103 17.273,793.171 16.385,793.602L14.59,794.471L14.59,784.987L24.344,784.986L24.344,787.486L17.09,787.487L17.09,790.769C17.905,790.626 18.823,790.603 20.062,790.603C21.529,790.603 22.867,791.136 23.828,792.104C24.996,793.281 25.58,795.009 25.562,797.237C25.523,802.205 22.777,804.453 20.073,804.478C20.052,804.478 20.031,804.478 20.01,804.478Z" style="fill:rgb(200,0,0);fill-rule:nonzero;"/>
                <path d="M150.404,804.478C148.79,804.478 147.303,803.919 146.315,802.94C145.467,802.1 145.019,801.011 145.019,799.79L147.519,799.79C147.519,800.336 147.706,800.799 148.075,801.165C148.605,801.69 149.498,802.001 150.445,801.978C151.883,801.965 153.429,800.708 153.456,797.218C153.468,795.702 153.119,794.542 152.447,793.865C151.822,793.235 151.019,793.103 150.456,793.103C148.438,793.103 147.667,793.171 146.779,793.602L144.984,794.471L144.984,784.987L154.738,784.986L154.738,787.486L147.484,787.487L147.484,790.769C148.299,790.626 149.217,790.603 150.456,790.603C151.923,790.603 153.261,791.136 154.222,792.104C155.39,793.281 155.974,795.009 155.956,797.237C155.917,802.205 153.171,804.453 150.467,804.478C150.446,804.478 150.425,804.478 150.404,804.478Z" style="fill:rgb(200,0,0);fill-rule:nonzero;"/>
                <path d="M15.84,1002.9L15.84,1000.4L23.095,1000.4L23.095,997.12C22.279,997.264 21.362,997.287 20.123,997.287C18.655,997.287 17.318,996.754 16.356,995.785C15.189,994.608 14.605,992.881 14.623,990.652C14.662,985.685 17.407,983.436 20.111,983.412C21.748,983.437 23.263,983.958 24.264,984.949C25.112,985.79 25.56,986.879 25.56,988.1L23.06,988.1C23.06,987.554 22.873,987.091 22.504,986.725C21.974,986.2 21.107,985.9 20.134,985.912C18.696,985.925 17.15,987.182 17.123,990.672C17.111,992.187 17.46,993.348 18.131,994.024C18.757,994.654 19.56,994.787 20.123,994.787C22.141,994.787 22.912,994.719 23.8,994.288L25.595,993.419L25.595,1002.9L15.84,1002.9Z" style="fill:rgb(200,0,0);fill-rule:nonzero;"/>
                <path d="M146.234,1002.9L146.234,1000.4L153.489,1000.4L153.489,997.12C152.673,997.264 151.756,997.287 150.517,997.287C149.049,997.287 147.712,996.754 146.75,995.785C145.583,994.608 144.999,992.881 145.017,990.652C145.056,985.685 147.801,983.436 150.505,983.412C152.149,983.437 153.657,983.958 154.658,984.949C155.506,985.79 155.954,986.879 155.954,988.1L153.454,988.1C153.454,987.554 153.267,987.091 152.898,986.725C152.368,986.2 151.51,985.9 150.528,985.912C149.09,985.925 147.544,987.182 147.517,990.672C147.505,992.187 147.854,993.348 148.525,994.024C149.151,994.654 149.954,994.787 150.517,994.787C152.535,994.787 153.306,994.719 154.194,994.288L155.989,993.419L155.989,1002.9L146.234,1002.9Z" style="fill:rgb(200,0,0);fill-rule:nonzero;"/>
            </g>
        </g>
    </g>
</svg>
